<svg width="38" height="36" viewBox="0 0 38 36" fill="none" xmlns="http://www.w3.org/2000/svg">
<path fill-rule="evenodd" clip-rule="evenodd" d="M0 21.0704C0 20.6621 0.447715 20.3311 1 20.3311H10C10.1627 20.3311 10.3229 20.3604 10.4668 20.4165L19 23.7461L27.5332 20.4165C27.6771 20.3604 27.8373 20.3311 28 20.3311H37C37.5523 20.3311 38 20.6621 38 21.0704V34.9324C38 35.3407 37.5523 35.6717 37 35.6717H1C0.447715 35.6717 0 35.3407 0 34.9324V21.0704ZM2 21.8097V34.1931H36V21.8097H28.2477L19.4668 25.2359C19.1747 25.3499 18.8253 25.3499 18.5332 25.2359L9.7523 21.8097H2Z" fill="url(#paint0_linear_6_54)"/>
<path fill-rule="evenodd" clip-rule="evenodd" d="M18.7499 17.0041C24.5489 17.0041 29.2499 13.5286 29.2499 9.24136C29.2499 4.95411 24.5489 1.47862 18.7499 1.47862C12.9509 1.47862 8.24994 4.95411 8.24994 9.24136C8.24994 13.5286 12.9509 17.0041 18.7499 17.0041ZM18.7499 18.4827C25.6535 18.4827 31.2499 14.3452 31.2499 9.24136C31.2499 4.1375 25.6535 0 18.7499 0C11.8464 0 6.24994 4.1375 6.24994 9.24136C6.24994 14.3452 11.8464 18.4827 18.7499 18.4827Z" fill="url(#paint1_linear_6_54)"/>
<path fill-rule="evenodd" clip-rule="evenodd" d="M4.5 28.0937C4.5 27.6854 4.94772 27.3544 5.5 27.3544H12.5C13.0523 27.3544 13.5 27.6854 13.5 28.0937C13.5 28.502 13.0523 28.833 12.5 28.833H5.5C4.94772 28.833 4.5 28.502 4.5 28.0937Z" fill="url(#paint2_linear_6_54)"/>
<defs>
<linearGradient id="paint0_linear_6_54" x1="19" y1="20.3311" x2="19" y2="35.6717" gradientUnits="userSpaceOnUse">
<stop/>
<stop offset="1"/>
</linearGradient>
<linearGradient id="paint1_linear_6_54" x1="18.7499" y1="0" x2="18.7499" y2="18.4827" gradientUnits="userSpaceOnUse">
<stop/>
<stop offset="1"/>
</linearGradient>
<linearGradient id="paint2_linear_6_54" x1="9" y1="27.3544" x2="9" y2="28.833" gradientUnits="userSpaceOnUse">
<stop/>
<stop offset="1"/>
</linearGradient>
</defs>
</svg>
