<svg width="43" height="37" viewBox="0 0 43 37" fill="none" xmlns="http://www.w3.org/2000/svg">
<path fill-rule="evenodd" clip-rule="evenodd" d="M12.7245 35.0134C13.5726 35.0134 14.2602 34.2351 14.2602 33.2751C14.2602 32.3151 13.5726 31.5369 12.7245 31.5369C11.8763 31.5369 11.1888 32.3151 11.1888 33.2751C11.1888 34.2351 11.8763 35.0134 12.7245 35.0134ZM12.7245 37C14.5419 37 16.0153 35.3323 16.0153 33.2751C16.0153 31.218 14.5419 29.5503 12.7245 29.5503C10.907 29.5503 9.43365 31.218 9.43365 33.2751C9.43365 35.3323 10.907 37 12.7245 37Z" fill="url(#paint0_linear_5_39)"/>
<path fill-rule="evenodd" clip-rule="evenodd" d="M34.2245 35.0134C35.0726 35.0134 35.7602 34.2351 35.7602 33.2751C35.7602 32.3151 35.0726 31.5369 34.2245 31.5369C33.3763 31.5369 32.6888 32.3151 32.6888 33.2751C32.6888 34.2351 33.3763 35.0134 34.2245 35.0134ZM34.2245 37C36.0419 37 37.5153 35.3323 37.5153 33.2751C37.5153 31.218 36.0419 29.5503 34.2245 29.5503C32.407 29.5503 30.9337 31.218 30.9337 33.2751C30.9337 35.3323 32.407 37 34.2245 37Z" fill="url(#paint1_linear_5_39)"/>
<path fill-rule="evenodd" clip-rule="evenodd" d="M0 0.993289C0 0.44471 0.392893 0 0.877551 0H4.38775C4.77337 0 5.11381 0.284934 5.22679 0.702253L6.65022 5.95973H42.1224C42.4114 5.95973 42.6819 6.12077 42.8456 6.39031C43.0093 6.65985 43.0453 7.00334 42.9418 7.30874L36.7989 25.4363C36.6688 25.8203 36.343 26.0738 35.9796 26.0738H11.4949L10.3098 29.302H34.0051C34.4898 29.302 34.8827 29.7467 34.8827 30.2953C34.8827 30.8439 34.4898 31.2886 34.0051 31.2886H8.9949C8.70164 31.2886 8.42776 31.1228 8.26497 30.8467C8.10218 30.5706 8.07199 30.2207 8.18452 29.9142L9.97762 25.0296L3.73885 1.98658H0.877551C0.392893 1.98658 0 1.54187 0 0.993289ZM11.5581 24.0872H35.3763L40.846 7.94631H7.18808L11.5581 24.0872Z" fill="url(#paint2_linear_5_39)"/>
<path fill-rule="evenodd" clip-rule="evenodd" d="M39.2704 16.8859H8.33673V14.8993H39.2704V16.8859Z" fill="url(#paint3_linear_5_39)"/>
<path fill-rule="evenodd" clip-rule="evenodd" d="M27.6548 24.669L30.2875 6.78979L32.0187 7.11639L29.386 24.9956L27.6548 24.669ZM18.2175 24.9689L16.0237 7.08974L17.7621 6.81645L19.9559 24.6956L18.2175 24.9689Z" fill="url(#paint4_linear_5_39)"/>
<defs>
<linearGradient id="paint0_linear_5_39" x1="12.7245" y1="29.5503" x2="12.7245" y2="37" gradientUnits="userSpaceOnUse">
<stop/>
<stop offset="1"/>
</linearGradient>
<linearGradient id="paint1_linear_5_39" x1="34.2245" y1="29.5503" x2="34.2245" y2="37" gradientUnits="userSpaceOnUse">
<stop/>
<stop offset="1"/>
</linearGradient>
<linearGradient id="paint2_linear_5_39" x1="21.5" y1="0" x2="21.5" y2="31.2886" gradientUnits="userSpaceOnUse">
<stop/>
<stop offset="1"/>
</linearGradient>
<linearGradient id="paint3_linear_5_39" x1="23.8036" y1="14.8993" x2="23.8036" y2="16.8859" gradientUnits="userSpaceOnUse">
<stop/>
<stop offset="1"/>
</linearGradient>
<linearGradient id="paint4_linear_5_39" x1="24.0212" y1="6.78979" x2="24.0212" y2="24.9956" gradientUnits="userSpaceOnUse">
<stop/>
<stop offset="1"/>
</linearGradient>
</defs>
</svg>
