<svg width="54" height="48" viewBox="0 0 54 48" fill="none" xmlns="http://www.w3.org/2000/svg">
<path fill-rule="evenodd" clip-rule="evenodd" d="M15.9796 45.4228C17.0447 45.4228 17.9082 44.4132 17.9082 43.1678C17.9082 41.9224 17.0447 40.9128 15.9796 40.9128C14.9145 40.9128 14.051 41.9224 14.051 43.1678C14.051 44.4132 14.9145 45.4228 15.9796 45.4228ZM15.9796 48C18.262 48 20.1122 45.8365 20.1122 43.1678C20.1122 40.499 18.262 38.3356 15.9796 38.3356C13.6972 38.3356 11.8469 40.499 11.8469 43.1678C11.8469 45.8365 13.6972 48 15.9796 48Z" fill="url(#paint0_linear_4_36)"/>
<path fill-rule="evenodd" clip-rule="evenodd" d="M42.9796 45.4228C44.0447 45.4228 44.9082 44.4132 44.9082 43.1678C44.9082 41.9224 44.0447 40.9128 42.9796 40.9128C41.9145 40.9128 41.051 41.9224 41.051 43.1678C41.051 44.4132 41.9145 45.4228 42.9796 45.4228ZM42.9796 48C45.262 48 47.1122 45.8365 47.1122 43.1678C47.1122 40.499 45.262 38.3356 42.9796 38.3356C40.6972 38.3356 38.8469 40.499 38.8469 43.1678C38.8469 45.8365 40.6972 48 42.9796 48Z" fill="url(#paint1_linear_4_36)"/>
<path fill-rule="evenodd" clip-rule="evenodd" d="M0 1.28859C0 0.576922 0.4934 0 1.10204 0H5.5102C5.99447 0 6.42199 0.369645 6.56388 0.911031L8.35144 7.73154H52.898C53.2609 7.73154 53.6005 7.94045 53.8061 8.29013C54.0117 8.6398 54.0569 9.08541 53.9269 9.48161L46.2126 32.9984C46.0492 33.4966 45.64 33.8255 45.1837 33.8255H14.4354L12.9472 38.0134H42.7041C43.3127 38.0134 43.8061 38.5903 43.8061 39.302C43.8061 40.0137 43.3127 40.5906 42.7041 40.5906H11.2959C10.9276 40.5906 10.5837 40.3755 10.3793 40.0173C10.1748 39.6591 10.1369 39.2052 10.2782 38.8076L12.53 32.4709L4.6953 2.57718H1.10204C0.4934 2.57718 0 2.00026 0 1.28859ZM14.5149 31.2483H44.426L51.2949 10.3087H9.02689L14.5149 31.2483Z" fill="url(#paint2_linear_4_36)"/>
<path fill-rule="evenodd" clip-rule="evenodd" d="M49.3163 21.906H10.4694V19.3289H49.3163V21.906Z" fill="url(#paint3_linear_4_36)"/>
<path fill-rule="evenodd" clip-rule="evenodd" d="M34.7293 32.0029L38.0354 8.8083L40.2095 9.23199L36.9034 32.4266L34.7293 32.0029ZM22.8778 32.392L20.1227 9.19742L22.3058 8.84288L25.0609 32.0375L22.8778 32.392Z" fill="url(#paint4_linear_4_36)"/>
<defs>
<linearGradient id="paint0_linear_4_36" x1="15.9796" y1="38.3356" x2="15.9796" y2="48" gradientUnits="userSpaceOnUse">
<stop stop-color="#C6767D"/>
<stop offset="1" stop-color="#D2999F"/>
</linearGradient>
<linearGradient id="paint1_linear_4_36" x1="42.9796" y1="38.3356" x2="42.9796" y2="48" gradientUnits="userSpaceOnUse">
<stop stop-color="#C6767D"/>
<stop offset="1" stop-color="#D2999F"/>
</linearGradient>
<linearGradient id="paint2_linear_4_36" x1="27" y1="0" x2="27" y2="40.5906" gradientUnits="userSpaceOnUse">
<stop stop-color="#C6767D"/>
<stop offset="1" stop-color="#D2999F"/>
</linearGradient>
<linearGradient id="paint3_linear_4_36" x1="29.8929" y1="19.3289" x2="29.8929" y2="21.906" gradientUnits="userSpaceOnUse">
<stop stop-color="#C6767D"/>
<stop offset="1" stop-color="#D2999F"/>
</linearGradient>
<linearGradient id="paint4_linear_4_36" x1="30.1661" y1="8.8083" x2="30.1661" y2="32.4266" gradientUnits="userSpaceOnUse">
<stop stop-color="#C6767D"/>
<stop offset="1" stop-color="#D2999F"/>
</linearGradient>
</defs>
</svg>
