<svg width="6" height="33" viewBox="0 0 6 33" fill="none" xmlns="http://www.w3.org/2000/svg">
<path d="M6 3.09375C6 4.80238 4.65685 6.1875 3 6.1875C1.34315 6.1875 0 4.80238 0 3.09375C0 1.38512 1.34315 0 3 0C4.65685 0 6 1.38512 6 3.09375Z" fill="url(#paint0_linear_5_32)"/>
<path fill-rule="evenodd" clip-rule="evenodd" d="M3 4.5375C3.7732 4.5375 4.4 3.89111 4.4 3.09375C4.4 2.29639 3.7732 1.65 3 1.65C2.2268 1.65 1.6 2.29639 1.6 3.09375C1.6 3.89111 2.2268 4.5375 3 4.5375ZM3 6.1875C4.65685 6.1875 6 4.80238 6 3.09375C6 1.38512 4.65685 0 3 0C1.34315 0 0 1.38512 0 3.09375C0 4.80238 1.34315 6.1875 3 6.1875Z" fill="url(#paint1_linear_5_32)"/>
<path d="M6 16.2937C6 18.0023 4.65685 19.3875 3 19.3875C1.34315 19.3875 0 18.0023 0 16.2937C0 14.5851 1.34315 13.2 3 13.2C4.65685 13.2 6 14.5851 6 16.2937Z" fill="url(#paint2_linear_5_32)"/>
<path fill-rule="evenodd" clip-rule="evenodd" d="M3 17.7375C3.7732 17.7375 4.4 17.0911 4.4 16.2937C4.4 15.4963 3.7732 14.85 3 14.85C2.2268 14.85 1.6 15.4963 1.6 16.2937C1.6 17.0911 2.2268 17.7375 3 17.7375ZM3 19.3875C4.65685 19.3875 6 18.0023 6 16.2937C6 14.5851 4.65685 13.2 3 13.2C1.34315 13.2 0 14.5851 0 16.2937C0 18.0023 1.34315 19.3875 3 19.3875Z" fill="url(#paint3_linear_5_32)"/>
<path d="M6 29.9062C6 31.6149 4.65685 33 3 33C1.34315 33 0 31.6149 0 29.9062C0 28.1976 1.34315 26.8125 3 26.8125C4.65685 26.8125 6 28.1976 6 29.9062Z" fill="url(#paint4_linear_5_32)"/>
<path fill-rule="evenodd" clip-rule="evenodd" d="M3 31.35C3.7732 31.35 4.4 30.7036 4.4 29.9062C4.4 29.1089 3.7732 28.4625 3 28.4625C2.2268 28.4625 1.6 29.1089 1.6 29.9062C1.6 30.7036 2.2268 31.35 3 31.35ZM3 33C4.65685 33 6 31.6149 6 29.9062C6 28.1976 4.65685 26.8125 3 26.8125C1.34315 26.8125 0 28.1976 0 29.9062C0 31.6149 1.34315 33 3 33Z" fill="url(#paint5_linear_5_32)"/>
<defs>
<linearGradient id="paint0_linear_5_32" x1="3" y1="0" x2="3" y2="6.1875" gradientUnits="userSpaceOnUse">
<stop/>
<stop offset="1"/>
</linearGradient>
<linearGradient id="paint1_linear_5_32" x1="3" y1="0" x2="3" y2="6.1875" gradientUnits="userSpaceOnUse">
<stop/>
<stop offset="1"/>
</linearGradient>
<linearGradient id="paint2_linear_5_32" x1="3" y1="13.2" x2="3" y2="19.3875" gradientUnits="userSpaceOnUse">
<stop/>
<stop offset="1"/>
</linearGradient>
<linearGradient id="paint3_linear_5_32" x1="3" y1="13.2" x2="3" y2="19.3875" gradientUnits="userSpaceOnUse">
<stop/>
<stop offset="1"/>
</linearGradient>
<linearGradient id="paint4_linear_5_32" x1="3" y1="26.8125" x2="3" y2="33" gradientUnits="userSpaceOnUse">
<stop/>
<stop offset="1"/>
</linearGradient>
<linearGradient id="paint5_linear_5_32" x1="3" y1="26.8125" x2="3" y2="33" gradientUnits="userSpaceOnUse">
<stop/>
<stop offset="1"/>
</linearGradient>
</defs>
</svg>
