<svg width="30" height="31" viewBox="0 0 30 31" fill="none" xmlns="http://www.w3.org/2000/svg">
<path d="M13.5 24.8H16.5V21.7H13.5V24.8ZM15 0C6.72 0 0 6.944 0 15.5C0 24.056 6.72 31 15 31C23.28 31 30 24.056 30 15.5C30 6.944 23.28 0 15 0ZM15 27.9C8.385 27.9 3 22.3355 3 15.5C3 8.6645 8.385 3.1 15 3.1C21.615 3.1 27 8.6645 27 15.5C27 22.3355 21.615 27.9 15 27.9ZM15 6.2C11.685 6.2 9 8.9745 9 12.4H12C12 10.695 13.35 9.3 15 9.3C16.65 9.3 18 10.695 18 12.4C18 15.5 13.5 15.1125 13.5 20.15H16.5C16.5 16.6625 21 16.275 21 12.4C21 8.9745 18.315 6.2 15 6.2Z" fill="black"/>
</svg>
