<svg width="29" height="24" viewBox="0 0 29 24" fill="none" xmlns="http://www.w3.org/2000/svg">
<path fill-rule="evenodd" clip-rule="evenodd" d="M14.2641 0.0349882C14.4159 -0.0116627 14.5841 -0.0116627 14.7359 0.0349882L28.5842 4.29305C28.8348 4.37013 29 4.56123 29 4.77419V23.4839C29 23.7689 28.7082 24 28.3483 24H0.651685C0.291769 24 0 23.7689 0 23.4839V4.77419C0 4.56123 0.165159 4.37013 0.415829 4.29305L14.2641 0.0349882ZM1.30337 5.12748V22.9677H27.6966V5.12748L14.5 1.06979L1.30337 5.12748Z" fill="url(#paint0_linear_5_46)"/>
<path fill-rule="evenodd" clip-rule="evenodd" d="M11.7303 23.871C12.0903 23.871 12.382 23.6399 12.382 23.3548V18.9677H16.618V23.3548C16.618 23.6399 16.9097 23.871 17.2697 23.871C17.6296 23.871 17.9213 23.6399 17.9213 23.3548V18.4516C17.9213 18.1666 17.6296 17.9355 17.2697 17.9355H11.7303C11.3704 17.9355 11.0787 18.1666 11.0787 18.4516V23.3548C11.0787 23.6399 11.3704 23.871 11.7303 23.871Z" fill="url(#paint1_linear_5_46)"/>
<path fill-rule="evenodd" clip-rule="evenodd" d="M14.5 9.80648C15.1299 9.80648 15.6405 9.4021 15.6405 8.90326C15.6405 8.40442 15.1299 8.00003 14.5 8.00003C13.8702 8.00003 13.3596 8.40442 13.3596 8.90326C13.3596 9.4021 13.8702 9.80648 14.5 9.80648ZM14.5 10.8387C15.8497 10.8387 16.9438 9.9722 16.9438 8.90326C16.9438 7.83432 15.8497 6.96777 14.5 6.96777C13.1503 6.96777 12.0562 7.83432 12.0562 8.90326C12.0562 9.9722 13.1503 10.8387 14.5 10.8387Z" fill="url(#paint2_linear_5_46)"/>
<defs>
<linearGradient id="paint0_linear_5_46" x1="14.5" y1="0" x2="14.5" y2="24" gradientUnits="userSpaceOnUse">
<stop/>
<stop offset="1"/>
</linearGradient>
<linearGradient id="paint1_linear_5_46" x1="14.5" y1="23.871" x2="14.5" y2="17.9355" gradientUnits="userSpaceOnUse">
<stop/>
<stop offset="1"/>
</linearGradient>
<linearGradient id="paint2_linear_5_46" x1="14.5" y1="6.96777" x2="14.5" y2="10.8387" gradientUnits="userSpaceOnUse">
<stop/>
<stop offset="1"/>
</linearGradient>
</defs>
</svg>
