<svg width="50" height="50" viewBox="0 0 50 50" fill="none" xmlns="http://www.w3.org/2000/svg">
<path d="M49.8497 14.6928C49.728 12.0316 49.3053 10.2143 48.6874 8.62433C48.0598 6.95615 47.0757 5.44514 45.8038 4.1962C44.5553 2.92437 43.0439 1.93979 41.3757 1.31188C39.7854 0.69428 37.9684 0.27199 35.3073 0.151063C32.6412 0.0289919 31.7894 0 25 0C18.2106 0 17.3588 0.0289919 14.6927 0.1503C12.0316 0.27199 10.2146 0.694662 8.62427 1.31265C6.9561 1.94017 5.4451 2.92437 4.19617 4.1962C2.92435 5.44476 1.93977 6.95577 1.31187 8.62395C0.694275 10.2143 0.271988 12.0316 0.151062 14.6924C0.0289917 17.3589 0 18.2104 0 24.9998C0 31.7896 0.0289917 32.6415 0.151062 35.3076C0.272369 37.9684 0.695038 39.7857 1.31302 41.376C1.94054 43.0438 2.92473 44.5552 4.19655 45.8038C5.4451 47.0756 6.95648 48.0598 8.62465 48.6874C10.2146 49.3057 12.0319 49.728 14.6931 49.8497C17.3595 49.9714 18.211 50 25.0004 50C31.7898 50 32.6416 49.9714 35.3077 49.8497C37.9688 49.728 39.7858 49.3057 41.3761 48.6874C44.7342 47.3888 47.3888 44.7342 48.6874 41.376C49.3057 39.7857 49.728 37.9684 49.8497 35.3076C49.971 32.6411 50 31.7896 50 25.0002C50 18.2104 49.971 17.3589 49.8497 14.6928V14.6928ZM45.3495 35.1027C45.2385 37.5403 44.8311 38.8641 44.4889 39.7449C43.6478 41.9254 41.9247 43.6485 39.7442 44.4896C38.8634 44.8318 37.5397 45.2392 35.1021 45.3502C32.4665 45.4708 31.6757 45.496 25 45.496C18.3239 45.496 17.5335 45.4708 14.8975 45.3502C12.4603 45.2392 11.1366 44.8318 10.2554 44.4896C9.16977 44.0887 8.18748 43.4497 7.38106 42.6193C6.5506 41.8128 5.91164 40.8309 5.51071 39.7449C5.16853 38.8641 4.76112 37.5403 4.65012 35.1027C4.52995 32.4668 4.50439 31.676 4.50439 25.0006C4.50439 18.3248 4.52995 17.5344 4.65012 14.898C4.76151 12.4604 5.16853 11.1367 5.51071 10.2559C5.91164 9.16984 6.55098 8.18755 7.38106 7.38111C8.18748 6.55065 9.16977 5.91168 10.2558 5.51114C11.1366 5.16857 12.4603 4.76154 14.8979 4.65015C17.5339 4.52999 18.3247 4.50443 25 4.50443H24.9996C31.675 4.50443 32.4657 4.52999 35.1021 4.65053C37.5397 4.76154 38.863 5.16895 39.7442 5.51114C40.8298 5.91206 41.8121 6.55103 42.6186 7.38111C43.449 8.18755 44.088 9.16984 44.4885 10.2559C44.8311 11.1367 45.2385 12.4604 45.3495 14.898C45.4697 17.534 45.4952 18.3248 45.4952 25.0002C45.4952 31.676 45.47 32.4664 45.3495 35.1027Z" fill="url(#paint0_linear_6_76)"/>
<path d="M24.9996 12.162C17.9096 12.162 12.162 17.91 12.162 25C12.162 32.09 17.9096 37.8376 24.9996 37.8376C32.09 37.8376 37.8376 32.09 37.8376 25C37.8376 17.91 32.09 12.162 24.9996 12.162ZM24.9996 33.3332C20.3976 33.3328 16.6664 29.602 16.6668 24.9996C16.6668 20.3976 20.3976 16.6664 25 16.6664C29.6024 16.6668 33.3332 20.3976 33.3332 24.9996C33.3332 29.602 29.602 33.3332 24.9996 33.3332Z" fill="url(#paint1_linear_6_76)"/>
<path d="M41.3448 11.655C41.3448 13.3118 40.0017 14.6549 38.3449 14.6549C36.6878 14.6549 35.3447 13.3118 35.3447 11.655C35.3447 9.99794 36.6878 8.65479 38.3449 8.65479C40.0017 8.65479 41.3448 9.99794 41.3448 11.655Z" fill="url(#paint2_linear_6_76)"/>
<defs>
<linearGradient id="paint0_linear_6_76" x1="4.19591" y1="45.804" x2="45.8044" y2="4.19586" gradientUnits="userSpaceOnUse">
<stop stop-color="#FFD600"/>
<stop offset="0.5" stop-color="#FF0100"/>
<stop offset="1" stop-color="#D800B9"/>
</linearGradient>
<linearGradient id="paint1_linear_6_76" x1="15.9222" y1="34.0775" x2="34.0775" y2="15.9222" gradientUnits="userSpaceOnUse">
<stop stop-color="#FF6400"/>
<stop offset="0.5" stop-color="#FF0100"/>
<stop offset="1" stop-color="#FD0056"/>
</linearGradient>
<linearGradient id="paint2_linear_6_76" x1="36.2235" y1="13.7761" x2="40.4661" y2="9.5336" gradientUnits="userSpaceOnUse">
<stop stop-color="#F30072"/>
<stop offset="1" stop-color="#E50097"/>
</linearGradient>
</defs>
</svg>
