<svg width="37" height="40" viewBox="0 0 37 40" fill="none" xmlns="http://www.w3.org/2000/svg">
<path fill-rule="evenodd" clip-rule="evenodd" d="M11.5111 2.0915C6.0619 2.0915 1.64444 7.70989 1.64444 14.6405C1.64444 17.0212 1.88997 18.5824 2.57198 20.0869C3.27562 21.6392 4.48004 23.2158 6.56433 25.5165L18.4962 37.6131L29.8473 25.9362C30.9968 24.5977 32.378 22.9633 33.4783 21.0399C34.5827 19.1094 35.3556 16.97 35.3556 14.6405C35.3556 7.70989 30.9381 2.0915 25.4889 2.0915C24.3452 2.0915 23.2088 2.60256 22.1019 3.40383C20.9949 4.20511 19.9648 5.26145 19.0379 6.28115C18.729 6.62088 18.271 6.62088 17.9621 6.28115C17.0352 5.26145 16.0051 4.20511 14.8981 3.40383C13.7912 2.60256 12.6548 2.0915 11.5111 2.0915ZM0 14.6405C0 6.55479 5.1537 0 11.5111 0C13.0394 0 14.4605 0.680498 15.7116 1.58611C16.7336 2.32595 17.6738 3.2395 18.5 4.1171C19.3262 3.2395 20.2664 2.32595 21.2885 1.58611C22.5395 0.680498 23.9606 0 25.4889 0C31.8463 0 37 6.55479 37 14.6405C37 17.5755 36.0256 20.142 34.808 22.2705C33.5921 24.3957 32.0853 26.1662 30.9391 27.5005C30.9267 27.5149 30.914 27.5288 30.901 27.5422L19.0171 39.7673C18.7172 40.0758 18.2891 40.0777 17.9875 39.772L5.52591 27.1384C5.517 27.1294 5.50823 27.1201 5.49962 27.1106C3.40341 24.7977 2.00325 23.0197 1.14734 21.1316C0.268364 19.1925 0 17.2242 0 14.6405Z" fill="url(#paint0_linear_5_73)"/>
<defs>
<linearGradient id="paint0_linear_5_73" x1="18.5" y1="0" x2="18.5" y2="40" gradientUnits="userSpaceOnUse">
<stop stop-color="#D2999F"/>
<stop offset="1" stop-color="#C6767D"/>
</linearGradient>
</defs>
</svg>
