<svg width="48" height="45" viewBox="0 0 48 45" fill="none" xmlns="http://www.w3.org/2000/svg">
<g style="mix-blend-mode:darken">
<path fill-rule="evenodd" clip-rule="evenodd" d="M21.1731 25.1502C25.5553 29.2586 32.6603 29.2586 37.0425 25.1502C41.4247 21.0419 41.4247 14.381 37.0425 10.2726C32.6603 6.16429 25.5553 6.16429 21.1731 10.2726C16.7908 14.381 16.7908 21.0419 21.1731 25.1502ZM19.6617 26.5671C24.8786 31.458 33.337 31.458 38.5539 26.5671C43.7708 21.6763 43.7708 13.7466 38.5539 8.85572C33.3369 3.96484 24.8786 3.96484 19.6617 8.85572C14.4448 13.7466 14.4448 21.6763 19.6617 26.5671Z" fill="url(#paint0_linear_7_58)"/>
<path fill-rule="evenodd" clip-rule="evenodd" d="M20.7809 25.5179C21.1982 25.9092 21.1982 26.5435 20.7809 26.9348L2.26707 44.2915C1.84971 44.6828 1.17304 44.6828 0.755689 44.2915C0.338334 43.9002 0.338335 43.2659 0.75569 42.8746L19.2695 25.5179C19.6868 25.1266 20.3635 25.1266 20.7809 25.5179Z" fill="url(#paint1_linear_7_58)"/>
<path fill-rule="evenodd" clip-rule="evenodd" d="M29.2977 11.021C27.6738 11.021 25.5534 11.6901 24.1755 12.9819C23.7581 13.3731 23.0815 13.3731 22.6641 12.9819C22.2468 12.5906 22.2468 11.9562 22.6641 11.565C24.4924 9.85099 27.1811 9.01721 29.2977 9.01721C29.8879 9.01721 30.3664 9.46578 30.3664 10.0191C30.3664 10.5725 29.8879 11.021 29.2977 11.021Z" fill="url(#paint2_linear_7_58)"/>
</g>
<defs>
<linearGradient id="paint0_linear_7_58" x1="38.5539" y1="8.85572" x2="20.8793" y2="27.7086" gradientUnits="userSpaceOnUse">
<stop/>
<stop offset="1"/>
</linearGradient>
<linearGradient id="paint1_linear_7_58" x1="20.7809" y1="25.5179" x2="2.04629" y2="45.5014" gradientUnits="userSpaceOnUse">
<stop/>
<stop offset="1"/>
</linearGradient>
<linearGradient id="paint2_linear_7_58" x1="26.3587" y1="9.01721" x2="26.3587" y2="13.2753" gradientUnits="userSpaceOnUse">
<stop/>
<stop offset="1"/>
</linearGradient>
</defs>
</svg>
