<svg width="50" height="50" viewBox="0 0 50 50" fill="none" xmlns="http://www.w3.org/2000/svg">
<g clip-path="url(#clip0_6_83)">
<path d="M1.16161 50C0.880848 50 0.607717 49.889 0.405156 49.6841C0.138128 49.4141 0.0351314 49.0219 0.135458 48.6553L3.38596 36.7855C1.36226 33.1261 0.295293 28.9864 0.296819 24.7841C0.302541 11.1179 11.4239 0 25.0889 0C31.7169 0.00267029 37.9448 2.58446 42.6258 7.26891C47.306 11.9537 49.8825 18.1812 49.8806 24.8039C49.8745 38.4705 38.7531 49.5892 25.0889 49.5892C25.0889 49.5892 25.0786 49.5892 25.0782 49.5892C21.0869 49.5876 17.1299 48.6149 13.6067 46.7724L1.43131 49.9653C1.34204 49.9886 1.25125 50 1.16161 50Z" fill="#E5E5E5"/>
<path d="M1.16156 48.936L4.52765 36.6439C2.45131 33.0463 1.35916 28.9653 1.36069 24.7844C1.36603 11.705 12.0098 1.06393 25.0889 1.06393C31.4358 1.0666 37.3932 3.537 41.8732 8.02078C46.3528 12.5046 48.819 18.4646 48.8167 24.8035C48.811 37.8825 38.1657 48.5251 25.0889 48.5251C25.0881 48.5251 25.0893 48.5251 25.0889 48.5251H25.0786C21.1075 48.5236 17.2058 47.5276 13.7402 45.6374L1.16156 48.936ZM14.3227 41.3432L15.0433 41.7701C18.0706 43.5668 21.5416 44.517 25.0813 44.519H25.0889C35.9585 44.519 44.8056 35.6735 44.8102 24.802C44.8121 19.5335 42.7628 14.5794 39.0393 10.8528C35.3154 7.12624 30.3643 5.07279 25.0961 5.0705C14.2178 5.0705 5.37108 13.9149 5.36689 24.786C5.36536 28.5114 6.40754 32.1391 8.38203 35.2786L8.85124 36.0248L6.85844 43.3002L14.3227 41.3432Z" fill="white"/>
<path d="M1.98669 48.1079L5.23643 36.2408C3.23143 32.7679 2.17743 28.8277 2.17857 24.7921C2.18353 12.1655 12.4592 1.89285 25.0847 1.89285C31.2126 1.89552 36.964 4.28047 41.288 8.60901C45.6131 12.9375 47.9934 18.6913 47.9911 24.81C47.9858 37.4371 37.7098 47.7108 25.0858 47.7108C25.0847 47.7108 25.0862 47.7108 25.0858 47.7108H25.0755C21.2421 47.7093 17.4751 46.7472 14.1296 44.9238L1.98669 48.1079Z" fill="#64B161"/>
<path d="M1.16156 48.936L4.52765 36.6439C2.45131 33.0463 1.35916 28.9653 1.36069 24.7844C1.36603 11.705 12.0098 1.06393 25.0889 1.06393C31.4358 1.0666 37.3932 3.537 41.8732 8.02078C46.3528 12.5046 48.819 18.4646 48.8167 24.8035C48.811 37.8825 38.1657 48.5251 25.0889 48.5251C25.0881 48.5251 25.0893 48.5251 25.0889 48.5251H25.0786C21.1075 48.5236 17.2058 47.5276 13.7402 45.6374L1.16156 48.936ZM14.3227 41.3432L15.0433 41.7701C18.0706 43.5668 21.5416 44.517 25.0813 44.519H25.0889C35.9585 44.519 44.8056 35.6735 44.8101 24.802C44.8121 19.5335 42.7628 14.5794 39.0393 10.8528C35.3154 7.12624 30.3643 5.07279 25.0961 5.0705C14.2178 5.0705 5.37108 13.9149 5.36689 24.786C5.36536 28.5114 6.40754 32.1391 8.38203 35.2786L8.85124 36.0248L6.85844 43.3002L14.3227 41.3432Z" fill="white"/>
<path fill-rule="evenodd" clip-rule="evenodd" d="M19.1585 14.8678C18.7145 13.8806 18.2468 13.8607 17.8241 13.8436C17.4785 13.8287 17.083 13.8294 16.6881 13.8294C16.2929 13.8294 15.6505 13.9782 15.1073 14.5714C14.5637 15.1646 13.0318 16.5989 13.0318 19.516C13.0318 22.4335 15.1565 25.2522 15.4529 25.6482C15.7493 26.0438 19.5545 32.2213 25.5806 34.5979C30.5889 36.5732 31.6078 36.1802 32.6949 36.0814C33.7821 35.9826 36.2026 34.6471 36.6966 33.2628C37.1909 31.8784 37.1909 30.692 37.0425 30.4437C36.8942 30.1969 36.499 30.0485 35.9062 29.7521C35.3133 29.4557 32.3985 28.021 31.855 27.8233C31.3114 27.6254 30.9162 27.5269 30.521 28.1205C30.1254 28.7133 28.9901 30.0485 28.6441 30.4437C28.2981 30.84 27.9521 30.8896 27.3593 30.5928C26.7665 30.2957 24.8569 29.6701 22.5917 27.6502C20.8294 26.0789 19.6392 24.138 19.2932 23.5444C18.9476 22.9516 19.2875 22.6586 19.5537 22.3347C20.0332 21.7515 20.8378 20.7028 21.0354 20.3076C21.233 19.9116 21.1342 19.5656 20.9861 19.2688C20.8378 18.9724 19.6853 16.0405 19.1585 14.8678Z" fill="white"/>
</g>
<defs>
<clipPath id="clip0_6_83">
<rect width="50" height="50" fill="white"/>
</clipPath>
</defs>
</svg>
